<?xml version="1.0" standalone="no"?>
<!DOCTYPE svg PUBLIC "-//W3C//DTD SVG 20010904//EN"
 "http://www.w3.org/TR/2001/REC-SVG-20010904/DTD/svg10.dtd">
<svg version="1.0" xmlns="http://www.w3.org/2000/svg"
 width="512.000000pt" height="512.000000pt" viewBox="0 0 512.000000 512.000000"
 preserveAspectRatio="xMidYMid meet">
<metadata>
Created by potrace 1.14, written by Peter Selinger 2001-2017
</metadata>
<g transform="translate(0.000000,512.000000) scale(0.100000,-0.100000)"
fill="#000000" stroke="none">
<path d="M4412 5106 c-53 -17 -127 -74 -159 -121 -69 -101 -71 -232 -5 -335
l28 -45 -320 -482 -321 -482 -30 7 c-95 22 -210 -7 -276 -69 l-30 -28 -217
110 -217 110 -1 73 c-1 63 -6 82 -34 135 -77 144 -248 205 -391 139 -154 -70
-219 -224 -164 -388 l17 -53 -274 -274 -275 -275 -34 18 c-53 29 -189 26 -252
-5 -107 -53 -170 -151 -173 -269 -1 -40 -3 -75 -5 -77 -2 -2 -100 -51 -217
-110 l-212 -106 -43 34 c-147 118 -359 80 -459 -83 -89 -146 -19 -361 141
-433 68 -31 189 -30 253 2 109 53 170 148 174 271 l3 75 216 108 216 108 39
-31 c168 -133 405 -71 483 127 25 64 24 159 -2 219 l-21 46 274 275 274 274
63 -21 c49 -17 78 -21 124 -16 66 6 149 42 184 80 l23 25 219 -110 218 -110 0
-62 c-1 -213 194 -358 397 -296 78 24 144 81 181 157 49 101 35 245 -33 323
-13 14 24 74 307 498 319 480 320 482 350 476 78 -17 164 -5 224 32 97 61 145
137 153 244 12 175 -110 314 -284 325 -43 2 -85 -1 -112 -10z"/>
<path d="M4216 4029 c-39 -11 -84 -55 -92 -93 -4 -17 -7 -876 -7 -1908 l0
-1878 -98 0 -97 0 0 1152 c0 721 -4 1162 -10 1178 -23 60 -86 92 -174 89 -61
-2 -90 -19 -103 -59 -6 -18 -14 -20 -106 -19 -89 1 -99 2 -99 19 0 10 -12 28
-27 40 -25 20 -36 22 -100 17 -80 -6 -115 -24 -141 -71 -15 -28 -16 -132 -18
-1181 -1 -632 -2 -1153 -3 -1157 0 -5 -44 -8 -96 -8 l-95 0 0 1398 c0 1310 -1
1399 -18 1431 -9 19 -30 44 -45 55 -27 20 -41 21 -327 21 -286 0 -300 -1 -327
-21 -15 -11 -36 -36 -45 -55 -17 -32 -18 -121 -18 -1431 l0 -1398 -95 0 c-52
0 -96 3 -96 8 -1 4 -2 417 -3 917 l-1 910 -24 34 c-42 58 -60 61 -368 61 -313
0 -330 -3 -366 -73 -18 -35 -19 -76 -19 -947 l0 -910 -97 0 -98 0 0 669 c0
643 0 670 -19 702 -11 19 -37 43 -59 54 -37 19 -58 20 -315 19 -166 -1 -286
-6 -302 -12 -14 -6 -39 -27 -54 -48 l-28 -37 -1 -673 0 -674 -56 0 c-72 0
-109 -25 -109 -75 0 -24 7 -39 26 -54 l27 -21 2452 0 2452 0 21 23 c31 33 29
80 -4 106 -20 16 -41 21 -83 21 l-57 0 1 818 c1 449 -3 832 -8 851 -6 24 -17
37 -38 44 l-29 11 0 96 1 95 31 20 c18 11 34 31 38 45 3 14 5 426 5 915 -1
847 -2 892 -19 921 -40 67 -51 69 -356 70 -151 0 -288 -3 -304 -7z"/>
</g>
</svg>
